<svg xmlns="http://www.w3.org/2000/svg" viewBox="0 0 188.227 224.298"><g data-name="Layer 2"><g data-name="ART"><path d="M100.39 181.083s36.136 31.852 71.953 28.983a4.362 4.362 0 014.445 2.876 9.48 9.48 0 01-.852 8.158 4.359 4.359 0 01-3.92 2.196c-9.063-.253-56.415-14.887-74.556-41.62" fill="#4495d7"/><path d="M172.14 224.298c-.05 0-.101 0-.153-.002-9.112-.255-56.931-14.909-75.355-42.058a1 1 0 011.655-1.123c18.04 26.584 64.84 40.932 73.756 41.181a3.324 3.324 0 003.022-1.688 8.492 8.492 0 00.783-7.326 3.349 3.349 0 00-3.425-2.219c-35.82 2.873-72.33-28.91-72.695-29.23a1 1 0 111.323-1.5c.358.315 36.241 31.546 71.212 28.736a5.387 5.387 0 015.466 3.533 10.498 10.498 0 01-.923 8.99 5.341 5.341 0 01-4.666 2.706z" fill="#3e4147"/><path d="M97.46 180.687s4.938 31.96 26.972 32.442a23.953 23.953 0 0015.663-5.62c7.38-6.08 25.107-19.127 44.263-21.936a3.353 3.353 0 002.017-5.543l-7.27-8.212a3.342 3.342 0 00-3.08-1.084c-6.056 1.064-25.759 6.036-44.905 27.452a12.585 12.585 0 01-16.174 2.24c-5.2-3.387-10.997-11.17-15.666-27.85" fill="#4495d7"/><path d="M124.91 214.134c-.167 0-.333-.002-.5-.005-22.61-.496-27.888-32.962-27.939-33.29a1 1 0 011.977-.305c.048.311 5.072 31.136 26.006 31.595a22.847 22.847 0 0015.005-5.392c6.926-5.704 25.151-19.28 44.754-22.153a2.353 2.353 0 001.414-3.89l-7.27-8.213a2.34 2.34 0 00-2.16-.763c-5.586.982-25.293 5.838-44.332 27.134a13.628 13.628 0 01-17.465 2.411c-6.596-4.295-12.007-13.856-16.083-28.418a1 1 0 011.926-.539c3.941 14.08 9.072 23.259 15.249 27.281a11.618 11.618 0 0014.882-2.067c19.468-21.776 39.73-26.762 45.477-27.771a4.322 4.322 0 014.003 1.406l7.27 8.213a4.353 4.353 0 01-2.621 7.194c-19.105 2.802-36.976 16.121-43.772 21.718a25.002 25.002 0 01-15.82 5.854z" fill="#3e4147"/><path d="M94.665 183.74L3.587 93.766a8.712 8.712 0 01-1.753-9.923l36.81-77.847a8.712 8.712 0 0112.081-3.907l75.421 41.557a8.712 8.712 0 014.388 9.07L109.38 178.982a8.712 8.712 0 01-14.715 4.758z" fill="#fdbe2a"/><path d="M63.583 84.04C54.341 56.143 47.435 17.047 44.841 1.177a8.687 8.687 0 00-6.196 4.819L1.834 83.843a8.712 8.712 0 001.753 9.923l91.077 89.974a8.663 8.663 0 0010.27 1.466C87.002 156.02 63.583 84.04 63.583 84.04z" fill="#0083d1"/><path d="M1.558 90.625a8.691 8.691 0 002.03 3.14l91.076 89.975a8.712 8.712 0 0014.716-4.758l21.155-126.266a8.709 8.709 0 00-1.404-6.36C115.087 54.83 66.582 81.638 1.558 90.624z" fill="#f3783c"/><path d="M61.373 77.02l.096-.329A344.81 344.81 0 011.558 90.625a8.691 8.691 0 002.03 3.14l91.076 89.975a8.67 8.67 0 0010.463 1.359c-23.47-38.719-43.754-108.08-43.754-108.08z" fill="#cedd3e"/><path d="M60.5 78.5q1.052 3.587 2.074 7.079 1.11 3.464 2.187 6.834c1.46 4.485 2.797 8.87 4.337 13.049l4.338 12.207 4.412 11.338c.721 1.825 1.39 3.635 2.122 5.386l2.199 5.142 4.172 9.748c2.798 6.208 5.554 11.87 8 17.112a58.974 58.974 0 001.724 3.386l1.576 2.93 2.57 4.699c1.474 2.655 2.49 4.406 3.189 5.56 1.398 2.31 1.533 2.236 1.533 2.236s.135-.074-.932-2.556c-.533-1.241-1.367-3.084-2.668-5.82l-2.323-4.808-1.463-2.975a66.328 66.328 0 01-1.623-3.422c-2.404-5.241-5.12-10.897-7.882-17.095l-4.12-9.73q-1.07-2.52-2.176-5.131c-.723-1.747-1.385-3.553-2.099-5.373l-4.37-11.31-4.305-12.172c-1.529-4.165-2.857-8.538-4.31-13.008l-2.176-6.812-2.066-7.055c-4.87-16.625-8.542-31.896-11.138-44.352-3.364-16.16-4.694-24.31-5.504-28.365-.753-4.062-.937-4.045-.937-4.045s-.225.023.085 4.16c.367 4.125 1.22 12.39 4.446 28.644C51.946 46.49 55.614 61.818 60.5 78.499z" fill="#3e4147"/><path d="M59.902 78.102a87.053 87.053 0 004.061-1.366l3.93-1.386c2.587-.904 5.098-1.79 7.5-2.746l7.019-2.712 6.522-2.715c8.393-3.557 15.559-6.891 21.562-9.909a171.555 171.555 0 0016.473-9.265c2.249-1.505 2.161-1.648 2.161-1.648s-.073-.119-2.499 1.056c-2.44 1.147-7.213 3.635-16.912 8.278-6.008 2.938-13.167 6.202-21.535 9.704l-6.501 2.676-6.991 2.68c-2.392.947-4.891 1.823-7.465 2.72l-3.912 1.376a87.007 87.007 0 01-4.039 1.358c-4.789 1.507-9.325 3.036-13.63 4.177l-6.173 1.743c-1.97.556-3.88.963-5.667 1.416-7.978 2.09-14.067 3.175-18.592 4.214-4.552.886-7.606 1.39-9.628 1.831-4.051.837-4.028 1.04-4.028 1.04s.023.205 4.148-.189c2.06-.219 5.163-.494 9.775-1.19 4.582-.85 10.744-1.785 18.79-3.812 1.8-.447 3.724-.851 5.707-1.404l6.214-1.738c4.332-1.14 8.895-2.673 13.71-4.189z" fill="#3e4147"/><path d="M100.719 187.273a9.552 9.552 0 01-6.757-2.821L2.884 94.476A9.724 9.724 0 01.93 83.416L37.74 5.568a9.712 9.712 0 0113.468-4.355l75.421 41.557a9.725 9.725 0 014.892 10.111l-21.154 126.266a9.555 9.555 0 01-6.592 7.637 9.905 9.905 0 01-3.056.489zM46.535 2a7.752 7.752 0 00-2.387.38 7.638 7.638 0 00-4.6 4.042L2.738 84.271a7.72 7.72 0 001.552 8.782l91.078 89.977a7.712 7.712 0 0013.026-4.213L129.548 52.55a7.722 7.722 0 00-3.884-8.029L50.243 2.965a7.656 7.656 0 00-3.708-.964z" fill="#3e4147"/></g></g></svg>
